<svg xmlns="http://www.w3.org/2000/svg" width="108.302" height="97.905" viewBox="0 0 108.302 97.905"><path d="M-10.827-119.865v-46.97h-20.13q0-11.285,4.27-19.062t15.86-11.743v-20.13a49.35,49.35,0,0,0-17.537,5.642,49.611,49.611,0,0,0-13.878,11.133,49.135,49.135,0,0,0-9,15.555,50.551,50.551,0,0,0-2.9,18.91v46.665Zm64.965,0v-46.97H34.007q0-11.285,4.27-19.062t15.86-11.743v-20.13A49.35,49.35,0,0,0,36.6-212.128a49.611,49.611,0,0,0-13.878,11.133,49.135,49.135,0,0,0-9,15.555,50.551,50.551,0,0,0-2.9,18.91v46.665Z" transform="translate(54.164 217.77)" fill="#6ab9c7"/></svg>