<svg xmlns="http://www.w3.org/2000/svg" width="232" height="149.093" viewBox="0 0 232 149.093"><g transform="translate(131.256 -399.084)"><g transform="translate(-131.256 399.084)"><g transform="translate(0 0)"><g transform="translate(51.125)"><path d="M971.6,1498.034s-19.162-18.793-35.4-18.793c-6.954,0-13.98,3.456-19.74,7.406,4.4-2.656,9.424-4.725,14.406-4.725,13.918,0,30.346,16.111,30.346,16.111h0s-16.086,15.545-29.931,15.545c-22.035,0-29.727-34.221-59.12-34.221-16.711,0-35.34,18.762-35.34,18.762h0s19.163,18.793,35.4,18.793c6.955,0,13.98-3.456,19.741-7.406-4.4,2.656-9.424,4.725-14.406,4.725-13.918,0-30.346-16.111-30.347-16.111h0s16.086-15.545,29.931-15.545c23.72,0,30.794,34.221,59.121,34.221,16.711,0,35.34-18.762,35.34-18.762Z" transform="translate(-836.829 -1431.501)" fill="#fff"/><path d="M990.591,1349.894h0s-18.793,19.162-18.793,35.4c0,6.954,3.733,14.794,8.487,21.716-3.248-5.187-5.806-11.4-5.806-16.383,0-13.918,16.111-30.345,16.112-30.346h0s15.545,16.086,15.545,29.931c0,11.192-7.619,18.677-15.666,26.438.43.461.846.933,1.235,1.429,8.731-8.489,17.648-17.838,17.648-32.842C1009.352,1368.523,990.591,1349.894,990.591,1349.894Z" transform="translate(-921.983 -1349.894)" fill="#fff"/><path d="M920.709,1401.555c-12.246-9.686-35.8-10.327-35.8-10.327h0s-.49,23.5,9.189,36.264H899c-6.877-10.905-6.872-28.794-6.872-28.794h0s17.714.483,28.586,7.367Z" transform="translate(-867.161 -1375.972)" fill="#fff"/><path d="M1096.254,1391.228h0s-22.753.619-35.16,9.838v4.606c10.912-6.51,27.946-6.974,27.947-6.974h0s.005,17.889-6.872,28.794h4.9C1096.744,1414.732,1096.254,1391.228,1096.254,1391.228Z" transform="translate(-978.321 -1375.972)" fill="#fff"/></g><text transform="translate(116 116.939)" fill="#fff" font-size="32" font-family="AvenirNextCondensed-Regular, Avenir Next Condensed" letter-spacing="0.1em"><tspan x="-115.616" y="0">BLOOM MED SPA</tspan></text><text transform="translate(112.256 144.093)" fill="#fff" font-size="15" font-family="AvenirNextCondensed-DemiBold, Avenir Next Condensed" font-weight="300" letter-spacing="0.1em"><tspan x="-105.368" y="0">AESTHETICS &amp; BODY WELLNESS</tspan></text></g></g></g></svg>