<svg xmlns="http://www.w3.org/2000/svg" width="316.464" height="72.734" viewBox="0 0 316.464 72.734"><g transform="translate(87.72 -399.084)"><g transform="translate(447 471.177)"><g transform="translate(-1371.549 -1421.987)"><g transform="translate(836.829 1349.894)"><path d="M951.6,1495.245s-16.318-16-30.143-16c-5.922,0-11.9,2.943-16.81,6.307,3.746-2.262,8.025-4.024,12.268-4.024,11.852,0,25.842,13.719,25.842,13.72h0s-13.7,13.238-25.489,13.238c-18.765,0-25.314-29.142-50.346-29.142-14.23,0-30.095,15.977-30.095,15.977h0s16.318,16,30.143,16c5.923,0,11.9-2.943,16.811-6.307-3.746,2.262-8.025,4.024-12.268,4.024-11.852,0-25.841-13.719-25.842-13.72h0s13.7-13.238,25.489-13.238c20.2,0,26.223,29.142,50.346,29.142,14.23,0,30.095-15.977,30.095-15.977Z" transform="translate(-836.829 -1438.587)" fill="#fff"/><path d="M987.8,1349.894h0s-16,16.318-16,30.143c0,5.922,3.179,12.6,7.228,18.493-2.766-4.417-4.944-9.708-4.944-13.951,0-11.852,13.719-25.841,13.72-25.842h0s13.238,13.7,13.238,25.489c0,9.53-6.488,15.905-13.341,22.514.366.393.72.795,1.052,1.217,7.435-7.229,15.028-15.19,15.028-27.968C1003.778,1365.758,987.8,1349.894,987.8,1349.894Z" transform="translate(-929.377 -1349.894)" fill="#fff"/><path d="M915.4,1400.023c-10.428-8.249-30.485-8.795-30.486-8.795h0s-.417,20.016,7.825,30.881h4.17c-5.856-9.287-5.852-24.52-5.852-24.52h0s15.085.411,24.343,6.274Z" transform="translate(-869.795 -1378.237)" fill="#fff"/><path d="M1091.036,1391.228h0s-19.376.527-29.941,8.378v3.922c9.293-5.544,23.8-5.939,23.8-5.939h0s0,15.233-5.852,24.52h4.17C1091.453,1411.244,1091.036,1391.228,1091.036,1391.228Z" transform="translate(-990.607 -1378.237)" fill="#fff"/></g><text transform="translate(1051.293 1392.226)" fill="#fff" font-size="28" font-family="AvenirNextCondensed-Regular, Avenir Next Condensed" letter-spacing="0.1em"><tspan x="-101.164" y="0">BLOOM MED SPA</tspan></text><text transform="translate(1057.549 1410.987)" fill="#fff" font-size="13.5" font-family="AvenirNextCondensed-DemiBold, Avenir Next Condensed" font-weight="300" letter-spacing="0.1em"><tspan x="-94.831" y="0">AESTHETICS &amp; BODY WELLNESS</tspan></text></g></g></g></svg>