<?xml version="1.0" encoding="UTF-8" standalone="no"?>
<!DOCTYPE svg PUBLIC "-//W3C//DTD SVG 1.1//EN" "http://www.w3.org/Graphics/SVG/1.1/DTD/svg11.dtd">
<svg width="100%" height="100%" viewBox="0 0 286 73" version="1.1" xmlns="http://www.w3.org/2000/svg" xmlns:xlink="http://www.w3.org/1999/xlink" xml:space="preserve" xmlns:serif="http://www.serif.com/" style="fill-rule:evenodd;clip-rule:evenodd;stroke-linejoin:round;stroke-miterlimit:2;">
    <g transform="matrix(1,0,0,1,0.002,0)">
        <g transform="matrix(1,0,0,1,87.72,-399.084)">
            <g transform="matrix(1,0,0,1,-924.549,-950.81)">
                <g>
                    <g transform="matrix(1,0,0,1,836.829,1349.89)">
                        <g transform="matrix(1,0,0,1,-836.829,-1438.59)">
                            <path d="M951.6,1495.25C951.6,1495.25 935.282,1479.25 921.457,1479.25C915.535,1479.25 909.557,1482.19 904.647,1485.55C908.393,1483.29 912.672,1481.53 916.915,1481.53C928.767,1481.53 942.757,1495.25 942.757,1495.25C942.757,1495.25 929.057,1508.49 917.268,1508.49C898.503,1508.49 891.954,1479.34 866.922,1479.34C852.692,1479.34 836.827,1495.32 836.827,1495.32C836.827,1495.32 853.145,1511.32 866.97,1511.32C872.893,1511.32 878.87,1508.38 883.781,1505.01C880.035,1507.28 875.756,1509.04 871.513,1509.04C859.661,1509.04 845.672,1495.32 845.671,1495.32C845.67,1495.32 859.371,1482.08 871.16,1482.08C891.36,1482.08 897.383,1511.22 921.506,1511.22C935.736,1511.22 951.601,1495.25 951.601,1495.25L951.6,1495.25Z" style="fill:white;fill-rule:nonzero;"/>
                        </g>
                        <g transform="matrix(1,0,0,1,-929.377,-1349.89)">
                            <path d="M987.8,1349.89C987.8,1349.89 971.8,1366.21 971.8,1380.04C971.8,1385.96 974.979,1392.64 979.028,1398.53C976.262,1394.11 974.084,1388.82 974.084,1384.58C974.084,1372.73 987.803,1358.74 987.804,1358.74C987.805,1358.74 1001.04,1372.44 1001.04,1384.23C1001.04,1393.76 994.554,1400.13 987.701,1406.74C988.067,1407.13 988.421,1407.54 988.753,1407.96C996.188,1400.73 1003.78,1392.77 1003.78,1379.99C1003.78,1365.76 987.8,1349.89 987.8,1349.89Z" style="fill:white;fill-rule:nonzero;"/>
                        </g>
                        <g transform="matrix(1,0,0,1,-869.795,-1378.24)">
                            <path d="M915.4,1400.02C904.972,1391.77 884.915,1391.23 884.914,1391.23C884.913,1391.23 884.497,1411.24 892.739,1422.11L896.909,1422.11C891.053,1412.82 891.057,1397.59 891.057,1397.59C891.057,1397.59 906.142,1398 915.4,1403.86L915.4,1400.02Z" style="fill:white;fill-rule:nonzero;"/>
                        </g>
                        <g transform="matrix(1,0,0,1,-990.607,-1378.24)">
                            <path d="M1091.04,1391.23C1091.04,1391.23 1071.66,1391.76 1061.1,1399.61L1061.1,1403.53C1070.39,1397.98 1084.89,1397.59 1084.89,1397.59C1084.89,1397.59 1084.89,1412.82 1079.04,1422.11L1083.21,1422.11C1091.45,1411.24 1091.04,1391.23 1091.04,1391.23Z" style="fill:white;fill-rule:nonzero;"/>
                        </g>
                    </g>
                    <g transform="matrix(1,0,0,1,950.129,1392.23)">
                        <text x="0px" y="0px" style="font-family:'AvenirNextCondensed-Regular', 'Avenir Next Condensed', sans-serif;font-stretch:condensed;font-size:28px;fill:white;">B<tspan x="13.944px 23.436px 39.732px 56.028px 76.356px 81.872px 102.2px 114.24px 129.724px 135.24px 147.728px 159.768px " y="0px 0px 0px 0px 0px 0px 0px 0px 0px 0px 0px 0px ">LOOM MED SPA</tspan></text>
                    </g>
                    <g transform="matrix(1,0,0,1,962.718,1410.99)">
                        <text x="0px" y="0px" style="font-family:'AvenirNextCondensed-DemiBold', 'Avenir Next Condensed', sans-serif;font-weight:600;font-stretch:condensed;font-size:13.5px;fill:white;">A<tspan x="6.993px 13.041px 19.184px 24.476px 32.657px 38.705px 43.997px 47.723px 54.581px 60.804px 63.599px 71.429px 74.223px 81.391px 89.532px " y="0px 0px 0px 0px 0px 0px 0px 0px 0px 0px 0px 0px 0px 0px 0px ">ESTHETICS &amp; BOD</tspan>Y <tspan x="106.002px 116.546px 122.594px 128.075px 133.556px 141.629px 147.677px 153.9px " y="0px 0px 0px 0px 0px 0px 0px 0px ">WELLNESS</tspan></text>
                    </g>
                </g>
            </g>
        </g>
    </g>
</svg>
